<svg width="32" height="32" viewBox="0 0 32 32" fill="none" xmlns="http://www.w3.org/2000/svg">
<path fill-rule="evenodd" clip-rule="evenodd" d="M16 1.99999C12.6763 2.00044 9.46115 3.18337 6.92971 5.33719C4.39827 7.491 2.71567 10.4752 2.18291 13.7559C1.65015 17.0367 2.30198 20.3999 4.0218 23.2441C5.74162 26.0883 8.41722 28.2278 11.57 29.28C12.27 29.41 12.57 28.98 12.57 28.61V26.23C8.68001 27.07 7.86001 24.35 7.86001 24.35C7.58646 23.4928 7.01073 22.7643 6.24001 22.3C4.97001 21.44 6.34001 21.45 6.34001 21.45C6.78361 21.5127 7.20703 21.6759 7.57792 21.9272C7.94881 22.1785 8.25736 22.5112 8.48001 22.9C8.86735 23.5947 9.51474 24.1072 10.2798 24.3247C11.0449 24.5422 11.8651 24.447 12.56 24.06C12.6165 23.3505 12.9293 22.6857 13.44 22.19C10.34 21.83 7.07001 20.63 7.07001 15.27C7.04734 13.8779 7.56323 12.5308 8.51001 11.51C8.08147 10.3042 8.13157 8.97997 8.65001 7.80999C8.65001 7.80999 9.82001 7.42999 12.5 9.23999C14.7915 8.61494 17.2085 8.61494 19.5 9.23999C22.17 7.42999 23.34 7.80999 23.34 7.80999C23.8584 8.97997 23.9085 10.3042 23.48 11.51C24.4268 12.5308 24.9427 13.8779 24.92 15.27C24.92 20.65 21.65 21.83 18.53 22.18C18.8642 22.5188 19.122 22.9252 19.2858 23.372C19.4497 23.8188 19.5159 24.2955 19.48 24.77V28.61C19.48 29.07 19.73 29.42 20.48 29.28C23.6369 28.2265 26.3153 26.0829 28.0349 23.2334C29.7544 20.384 30.4026 17.0152 29.8633 13.7312C29.324 10.4471 27.6324 7.46257 25.0919 5.31276C22.5513 3.16295 19.3281 1.98849 16 1.99999Z" fill="#292828"/>
</svg>
